<svg xmlns="http://www.w3.org/2000/svg" viewBox="0 0 1280 720" role="img" aria-label="Classroom background">
  <rect width="1280" height="720" fill="#e8dfc7"/>
  <rect y="425" width="1280" height="295" fill="#8b6b4a"/>
  <rect x="0" y="410" width="1280" height="18" fill="#6e5138"/>
  <rect x="76" y="74" width="456" height="244" rx="10" fill="#446f87"/>
  <rect x="92" y="90" width="424" height="212" fill="#b7dbef"/>
  <path d="M92 230h424M304 90v212" stroke="#446f87" stroke-width="12"/>
  <rect x="696" y="96" width="392" height="210" rx="8" fill="#314d3b"/>
  <rect x="718" y="118" width="348" height="166" fill="#3f7156"/>
  <path d="M742 158h300M742 202h240M742 246h160" stroke="#dbe7c8" stroke-width="10" stroke-linecap="round"/>
  <g fill="#6b4a32">
    <rect x="120" y="478" width="260" height="42" rx="8"/>
    <rect x="160" y="520" width="18" height="116"/>
    <rect x="320" y="520" width="18" height="116"/>
    <rect x="502" y="500" width="252" height="42" rx="8"/>
    <rect x="540" y="542" width="18" height="104"/>
    <rect x="704" y="542" width="18" height="104"/>
    <rect x="864" y="476" width="276" height="44" rx="8"/>
    <rect x="904" y="520" width="18" height="116"/>
    <rect x="1086" y="520" width="18" height="116"/>
  </g>
  <g fill="#30414b" opacity=".22">
    <path d="M0 720 456 425h100L138 720z"/>
    <path d="M480 720 820 425h94L604 720z"/>
  </g>
  <text x="40" y="682" fill="#4d3827" font-family="sans-serif" font-size="28" letter-spacing="3">CLASSROOM</text>
</svg>
