<svg xmlns="http://www.w3.org/2000/svg" viewBox="0 0 1280 720" role="img" aria-label="Riverside at dusk">
  <defs>
    <linearGradient id="sky" x1="0" x2="0" y1="0" y2="1">
      <stop offset="0" stop-color="#25435f" />
      <stop offset="0.58" stop-color="#b36f5f" />
      <stop offset="1" stop-color="#24394b" />
    </linearGradient>
    <linearGradient id="river" x1="0" x2="1" y1="0" y2="0">
      <stop offset="0" stop-color="#1d5b74" />
      <stop offset="0.5" stop-color="#3c8893" />
      <stop offset="1" stop-color="#203b5a" />
    </linearGradient>
  </defs>
  <rect width="1280" height="720" fill="url(#sky)" />
  <circle cx="1010" cy="180" r="78" fill="#ffd37a" opacity="0.9" />
  <path d="M0 392 C230 330 410 382 620 340 C810 302 1010 344 1280 288 L1280 720 L0 720 Z" fill="#243238" />
  <path d="M0 470 C260 420 425 505 680 448 C910 396 1080 455 1280 410 L1280 720 L0 720 Z" fill="url(#river)" />
  <path d="M0 565 C225 535 412 590 650 542 C885 498 1055 548 1280 512 L1280 720 L0 720 Z" fill="#1a2731" opacity="0.56" />
  <path d="M80 418 L260 308 L420 420 Z" fill="#22363b" />
  <path d="M386 415 L600 250 L806 420 Z" fill="#1d3037" />
  <path d="M760 400 L980 276 L1195 410 Z" fill="#22363b" />
  <g stroke="#f9d08b" stroke-width="5" opacity="0.45">
    <path d="M835 250 C905 230 965 224 1046 235" />
    <path d="M778 520 C862 497 970 492 1088 509" />
    <path d="M143 515 C238 492 335 498 446 522" />
  </g>
</svg>
